<svg width="640" height="640" xmlns="http://www.w3.org/2000/svg" preserveAspectRatio="xMidYMid meet" version="1.0">

 <g>
  <title>Layer 1</title>
  <g id="svg_1" fill="#000000" transform="translate(0.000000,640.000000) scale(0.100000,-0.100000)">
   <path id="svg_2" d="m3090,6320c-41,-4 -138,-13 -215,-20c-77,-6 -172,-20 -211,-31c-38,-10 -87,-19 -107,-19c-20,0 -59,-9 -87,-20c-28,-11 -62,-20 -76,-20c-13,0 -51,-11 -84,-25c-33,-14 -68,-25 -79,-25c-11,0 -40,-9 -63,-20c-24,-10 -73,-30 -110,-44c-36,-14 -79,-32 -95,-40c-269,-133 -304,-152 -331,-176c-13,-11 -28,-20 -32,-20c-11,0 -98,-58 -105,-71c-4,-5 -14,-9 -23,-9c-9,0 -49,-28 -88,-63c-81,-71 -99,-86 -133,-109c-72,-50 -361,-336 -392,-387c-11,-18 -26,-34 -34,-37c-9,-4 -32,-32 -52,-63c-21,-31 -45,-62 -55,-69c-10,-7 -18,-19 -18,-27c0,-7 -18,-36 -40,-64c-22,-28 -45,-61 -51,-74c-5,-12 -20,-38 -32,-58c-44,-74 -87,-152 -93,-173c-4,-11 -15,-32 -25,-45c-11,-13 -19,-30 -19,-38c0,-8 -9,-26 -20,-40c-11,-14 -20,-33 -20,-42c0,-9 -9,-31 -20,-49c-11,-18 -20,-38 -20,-45c0,-7 -9,-30 -20,-52c-11,-22 -20,-47 -20,-56c0,-9 -11,-37 -25,-63c-14,-26 -25,-58 -25,-71c0,-13 -9,-47 -20,-75c-11,-28 -20,-60 -20,-71c0,-11 -9,-44 -19,-75c-11,-30 -23,-88 -26,-127c-4,-40 -14,-97 -22,-127c-12,-43 -17,-129 -20,-395c-4,-291 -2,-351 12,-415c9,-41 21,-118 27,-170c5,-52 16,-107 25,-123c8,-16 17,-55 20,-86c3,-31 14,-72 25,-91c10,-19 18,-48 18,-64c0,-16 9,-43 19,-60c11,-17 23,-49 27,-71c4,-22 13,-49 20,-60c8,-11 14,-26 14,-35c0,-12 59,-142 102,-224c58,-111 92,-172 99,-176c4,-3 13,-17 19,-30c6,-14 24,-45 40,-70c17,-25 37,-59 45,-76c8,-17 21,-34 30,-37c8,-4 15,-15 15,-25c0,-10 8,-27 18,-38c9,-10 65,-77 123,-149c120,-147 346,-375 371,-375c5,0 28,-19 52,-42c24,-24 57,-54 75,-68c17,-14 39,-33 48,-42c10,-10 23,-18 29,-18c7,0 26,-11 42,-25c17,-14 32,-25 35,-25c3,0 27,-15 53,-32c25,-18 75,-49 110,-68c35,-19 69,-41 76,-48c6,-6 16,-12 20,-12c5,0 73,-32 153,-70c80,-39 149,-70 155,-70c5,0 27,-9 47,-20c21,-11 47,-20 58,-20c11,0 34,-9 50,-20c17,-11 41,-20 55,-20c14,0 43,-9 66,-19c23,-10 65,-22 94,-26c29,-4 69,-14 88,-22c19,-8 74,-19 121,-23c48,-5 107,-17 131,-26c39,-14 99,-16 430,-17c357,0 391,1 465,20c44,12 109,23 145,26c36,3 81,12 100,20c19,9 58,18 85,22c28,4 61,13 75,20c14,8 44,17 65,21c22,4 56,15 75,25c19,11 42,19 50,19c8,0 31,8 50,19c19,10 49,21 67,25c17,4 37,14 44,22c6,8 19,14 28,14c20,0 204,90 229,113c9,8 28,18 42,22c14,4 36,16 49,26c13,11 29,19 36,19c7,0 36,18 64,40c28,22 54,40 59,40c8,0 49,30 90,68c14,12 28,22 33,22c4,0 29,18 54,40c25,22 50,40 54,40c11,0 403,394 461,463c78,93 167,225 245,362c31,55 60,107 66,115c5,8 18,35 30,60c11,25 33,72 49,105c53,114 69,150 76,180c4,17 13,39 19,50c7,11 24,61 40,110c15,50 35,117 46,150c10,33 21,85 25,115c4,30 13,73 21,95c7,21 18,89 23,150c5,60 15,137 21,170c19,92 17,419 -4,537c-9,54 -17,121 -17,150c0,29 -7,82 -16,118c-8,36 -21,94 -28,130c-8,36 -21,85 -30,109c-9,24 -16,55 -16,70c0,15 -7,36 -15,48c-8,12 -20,45 -25,74c-6,29 -17,60 -25,69c-8,9 -15,25 -15,36c0,10 -11,42 -25,69c-13,28 -25,57 -25,66c0,9 -6,22 -14,28c-8,7 -18,27 -22,44c-3,18 -15,44 -25,59c-11,14 -19,32 -20,40c0,12 -30,66 -74,135c-49,77 -81,128 -94,152c-17,31 -129,183 -172,234c-18,21 -40,50 -49,65c-10,15 -40,49 -69,75c-28,27 -54,59 -57,72c-3,13 -13,27 -22,30c-18,5 -86,70 -137,129c-16,19 -34,35 -38,35c-12,1 -59,38 -115,89c-26,24 -67,55 -92,70c-25,14 -66,42 -92,62c-52,39 -110,75 -178,111c-25,13 -47,28 -49,32c-2,5 -22,17 -45,28c-22,10 -48,23 -56,28c-8,5 -26,14 -40,20c-14,6 -32,15 -40,20c-8,6 -44,22 -80,37c-36,14 -81,35 -101,45c-20,10 -47,19 -61,19c-13,0 -34,7 -46,16c-13,9 -51,23 -85,30c-33,8 -66,19 -73,25c-7,5 -34,14 -61,18c-26,5 -68,16 -93,24c-25,9 -72,20 -105,26c-33,5 -80,14 -105,20c-108,25 -532,52 -640,41zm555,-123c28,-8 82,-19 120,-23c39,-3 92,-15 118,-25c26,-11 62,-19 80,-19c18,0 46,-7 62,-16c17,-9 54,-20 84,-25c30,-4 61,-15 70,-23c9,-8 34,-17 56,-21c22,-4 77,-25 121,-46c45,-22 90,-39 101,-39c11,0 31,-8 44,-18c13,-10 64,-38 112,-62c49,-23 104,-53 123,-66c19,-13 39,-24 44,-24c6,0 18,-8 28,-17c27,-27 97,-73 110,-73c6,0 15,-7 20,-16c5,-8 18,-21 29,-27c47,-28 100,-67 134,-99c20,-18 77,-67 127,-107c65,-53 93,-83 97,-103c4,-15 13,-28 22,-28c13,0 47,-31 79,-72c6,-8 43,-50 82,-93c40,-44 72,-84 72,-89c0,-7 25,-43 62,-86c23,-27 68,-99 68,-109c0,-5 7,-14 15,-21c14,-11 55,-78 105,-168c8,-15 23,-38 33,-52c9,-13 17,-34 17,-46c0,-11 9,-29 19,-38c11,-10 23,-32 27,-49c3,-17 15,-44 25,-61c10,-17 19,-39 19,-49c0,-9 9,-34 20,-54c11,-21 20,-46 20,-55c0,-10 8,-37 19,-60c26,-61 59,-166 66,-213c4,-22 13,-57 21,-79c8,-21 19,-72 24,-113c5,-41 17,-95 26,-121c14,-41 17,-101 17,-447c-1,-343 -3,-408 -17,-455c-9,-30 -21,-90 -26,-133c-6,-43 -16,-91 -24,-105c-7,-15 -16,-51 -20,-80c-4,-30 -16,-70 -26,-90c-11,-20 -20,-50 -20,-67c0,-16 -9,-43 -20,-60c-11,-16 -20,-39 -20,-50c0,-11 -9,-37 -20,-58c-11,-20 -20,-44 -20,-52c0,-14 -24,-65 -107,-230c-35,-70 -75,-140 -86,-155c-7,-8 -18,-28 -25,-43c-7,-15 -17,-33 -23,-40c-5,-7 -19,-25 -29,-42c-11,-16 -38,-55 -60,-85c-22,-30 -59,-81 -81,-114c-47,-66 -389,-412 -446,-451c-21,-14 -63,-43 -93,-65c-95,-70 -141,-100 -150,-100c-5,0 -13,-6 -17,-14c-4,-7 -23,-22 -42,-32c-47,-27 -62,-36 -98,-61c-17,-13 -37,-23 -44,-23c-7,0 -20,-7 -29,-15c-22,-20 -127,-75 -144,-75c-7,0 -19,-6 -25,-14c-7,-8 -27,-18 -44,-22c-18,-4 -48,-15 -67,-25c-19,-11 -39,-19 -44,-19c-5,0 -27,-9 -50,-19c-55,-26 -130,-51 -191,-63c-27,-6 -62,-16 -76,-24c-15,-8 -59,-18 -100,-24c-40,-6 -78,-15 -86,-21c-7,-6 -61,-15 -120,-19c-60,-5 -121,-14 -138,-21c-21,-9 -115,-14 -305,-17c-249,-3 -284,-2 -377,17c-55,12 -126,21 -157,21c-30,0 -77,8 -103,19c-26,10 -72,21 -102,25c-30,4 -63,12 -73,17c-10,5 -44,14 -75,20c-32,6 -67,16 -78,23c-11,7 -38,16 -60,20c-22,4 -54,16 -71,27c-17,10 -39,19 -48,19c-9,0 -34,9 -54,19c-20,11 -82,41 -137,67c-55,26 -112,56 -127,66c-14,10 -33,18 -41,18c-8,0 -20,7 -28,16c-7,9 -27,23 -45,32c-41,22 -103,58 -135,80c-14,9 -52,35 -85,57c-32,22 -69,49 -80,60c-12,11 -41,36 -65,55c-85,67 -319,294 -319,308c0,6 -25,36 -56,69c-31,32 -70,78 -87,103c-17,25 -50,68 -74,97c-23,28 -43,56 -43,62c0,7 -8,24 -19,39c-28,42 -55,84 -69,112c-7,14 -23,43 -37,65c-56,94 -175,345 -175,370c0,9 -8,33 -19,53c-26,52 -51,128 -62,191c-5,29 -17,67 -25,83c-9,17 -18,56 -21,87c-3,31 -12,68 -19,83c-8,15 -18,78 -24,140c-5,62 -15,140 -22,173c-17,81 -16,518 1,560c7,17 16,80 21,140c5,61 15,126 23,145c8,19 17,62 21,95c4,33 13,70 21,82c8,12 15,34 15,47c0,30 54,199 75,238c8,14 15,34 15,45c0,10 12,41 25,68c14,28 25,56 25,63c0,8 9,25 20,39c11,14 20,33 20,43c0,10 8,28 19,41c10,13 22,35 26,49c4,14 13,32 20,40c6,8 36,58 65,110c30,52 56,97 59,100c3,3 22,28 41,55c19,28 42,59 52,69c10,11 18,24 18,29c0,6 9,19 20,31c12,12 48,56 82,100c97,124 353,372 421,407c20,11 37,24 37,30c0,5 8,13 18,16c9,4 35,20 57,35c22,15 63,44 90,63c28,19 55,35 62,35c7,0 16,6 20,13c11,17 62,51 101,66c17,8 32,17 32,21c0,4 17,15 38,24c20,9 44,20 52,26c24,15 126,60 137,60c5,0 18,9 28,20c10,11 30,20 44,20c14,0 49,12 76,25c28,14 58,25 68,25c9,0 34,9 54,20c21,11 48,20 61,20c13,0 44,9 70,19c26,11 67,22 92,25c25,3 58,12 74,20c15,8 65,17 109,21c45,4 90,12 101,17c38,20 161,26 491,24c277,-2 349,-6 390,-19z"/>
   <path id="svg_3" d="m3105,6060c-38,-4 -140,-13 -225,-20c-85,-6 -163,-16 -173,-22c-10,-5 -53,-15 -95,-23c-42,-7 -95,-20 -117,-29c-22,-8 -52,-15 -68,-16c-15,0 -44,-9 -64,-20c-20,-10 -56,-22 -80,-26c-24,-3 -43,-10 -43,-14c0,-4 -19,-12 -42,-19c-47,-14 -304,-136 -328,-156c-8,-7 -32,-18 -52,-25c-21,-6 -38,-15 -38,-20c0,-4 -12,-13 -27,-19c-41,-17 -94,-51 -146,-93c-25,-21 -48,-38 -52,-38c-9,0 -86,-64 -169,-141c-39,-37 -81,-70 -94,-74c-12,-3 -29,-18 -37,-33c-19,-37 -70,-89 -94,-97c-11,-3 -22,-14 -26,-23c-3,-9 -22,-35 -43,-57c-60,-66 -126,-147 -157,-195c-16,-25 -34,-50 -41,-55c-6,-6 -20,-28 -32,-50c-11,-22 -35,-56 -51,-75c-17,-19 -31,-40 -31,-47c0,-7 -10,-27 -23,-45c-21,-32 -70,-130 -121,-243c-13,-27 -30,-66 -39,-85c-20,-44 -54,-140 -72,-205c-7,-27 -20,-68 -29,-90c-8,-22 -15,-51 -16,-65c0,-14 -9,-51 -20,-83c-11,-31 -20,-76 -20,-100c0,-24 -9,-77 -20,-118c-17,-66 -20,-107 -20,-391c0,-282 2,-326 20,-400c11,-46 20,-100 20,-120c0,-21 9,-64 19,-95c11,-32 23,-80 27,-108c4,-27 15,-67 25,-90c10,-22 19,-51 19,-65c0,-14 9,-38 20,-55c11,-16 20,-39 20,-50c0,-11 9,-37 20,-58c11,-20 20,-45 20,-54c0,-10 12,-36 25,-58c14,-22 25,-48 25,-57c0,-10 4,-18 8,-18c5,0 19,-23 31,-50c12,-27 27,-50 32,-50c5,0 9,-7 9,-16c0,-10 17,-42 37,-73c21,-31 45,-68 53,-83c8,-14 36,-57 63,-95c126,-181 159,-223 259,-327c38,-39 72,-74 76,-79c63,-67 203,-193 253,-227c35,-24 69,-49 74,-56c6,-6 22,-18 36,-25c15,-8 39,-24 55,-37c46,-35 118,-82 128,-82c5,0 17,-6 25,-14c18,-17 210,-116 224,-116c5,0 20,-9 34,-20c14,-11 35,-20 46,-20c11,0 34,-9 51,-19c17,-10 47,-22 66,-26c19,-4 44,-13 55,-21c11,-7 38,-16 60,-20c22,-4 58,-15 80,-25c22,-10 55,-19 73,-19c18,0 47,-7 65,-16c17,-9 67,-21 112,-26c44,-4 103,-16 130,-25c43,-15 98,-17 410,-17c341,0 364,1 439,22c44,12 99,22 122,22c23,0 63,9 89,20c26,11 61,20 78,20c18,0 50,9 72,19c22,10 56,21 76,25c19,3 53,15 74,26c22,11 49,20 60,20c11,0 29,6 40,13c11,7 39,19 61,25c23,7 47,19 54,27c7,8 21,15 30,15c10,0 45,15 78,32c117,64 197,111 202,119c3,5 22,15 42,23c20,9 38,19 40,23c4,11 82,63 94,63c6,0 30,20 55,45c24,24 49,45 54,45c12,0 158,128 226,198c25,26 55,54 65,63c26,21 70,73 124,143c24,32 56,71 70,86c29,31 93,123 130,187c14,23 37,57 52,75c15,18 28,38 28,45c0,7 11,29 25,49c14,20 25,42 25,49c0,7 7,18 15,25c8,7 15,20 15,29c0,9 7,27 15,41c35,62 75,151 75,167c0,10 7,29 16,41c9,13 22,47 29,75c7,29 20,72 28,97c46,136 57,178 57,205c0,17 9,59 20,93c11,35 20,85 20,110c0,26 10,110 21,187c24,158 22,339 -6,519c-8,55 -15,118 -15,140c0,23 -7,66 -15,96c-9,30 -19,82 -24,116c-5,33 -15,74 -23,90c-9,16 -18,49 -21,74c-4,25 -15,63 -27,85c-11,21 -20,47 -20,57c0,10 -9,35 -20,55c-11,21 -20,46 -20,56c0,10 -9,30 -20,44c-11,14 -20,33 -20,41c0,17 -44,108 -90,187c-17,28 -34,59 -39,70c-5,12 -16,27 -25,34c-9,7 -16,18 -16,24c0,13 -145,230 -165,247c-8,7 -15,18 -15,25c0,7 -12,25 -26,41c-50,55 -209,227 -224,241c-8,8 -51,49 -96,92c-44,43 -102,92 -130,111c-27,19 -73,53 -102,77c-30,24 -59,43 -65,43c-6,0 -32,18 -58,40c-26,22 -53,40 -60,40c-7,0 -20,7 -30,16c-24,22 -125,75 -249,131c-30,14 -76,36 -101,49c-26,13 -53,24 -61,24c-8,0 -31,9 -53,20c-22,11 -47,20 -56,20c-9,0 -36,9 -60,20c-24,11 -57,20 -72,20c-15,0 -47,8 -70,19c-23,10 -70,22 -104,25c-35,4 -78,13 -96,21c-19,8 -96,19 -173,25c-76,6 -186,15 -244,20c-58,5 -112,9 -120,8c-8,0 -46,-4 -85,-8zm362,-210c23,-5 90,-14 150,-19c59,-6 126,-17 148,-25c22,-7 63,-19 90,-24c87,-19 189,-48 222,-65c18,-10 40,-17 50,-17c10,0 37,-9 61,-20c23,-11 61,-28 85,-38c23,-10 67,-31 98,-45c31,-15 60,-27 64,-27c5,0 16,-7 25,-15c8,-8 43,-28 75,-46c33,-17 71,-40 84,-50c13,-11 30,-19 37,-19c8,0 14,-4 14,-8c0,-4 36,-32 81,-61c44,-30 88,-62 97,-71c10,-10 46,-41 82,-70c70,-57 247,-238 289,-296c14,-20 43,-54 63,-77c21,-23 38,-47 38,-54c0,-6 20,-35 44,-65c23,-29 46,-63 50,-76c4,-12 11,-22 15,-22c5,0 14,-13 21,-29c6,-16 18,-32 26,-35c8,-3 14,-11 14,-18c1,-19 54,-124 74,-143c9,-9 16,-25 16,-36c0,-11 9,-37 20,-57c35,-67 70,-150 70,-169c0,-10 9,-31 20,-48c11,-16 20,-40 20,-52c0,-12 8,-44 19,-70c10,-26 21,-70 25,-98c4,-27 13,-64 21,-80c8,-17 17,-66 20,-110c3,-44 14,-111 23,-150c24,-100 24,-508 0,-610c-9,-38 -19,-105 -22,-148c-3,-43 -12,-90 -20,-105c-7,-15 -17,-50 -21,-78c-3,-28 -13,-63 -20,-78c-8,-15 -17,-44 -21,-64c-4,-20 -15,-54 -25,-74c-11,-21 -19,-43 -19,-50c0,-8 -9,-31 -20,-53c-11,-22 -20,-44 -20,-49c0,-27 -172,-370 -203,-404c-9,-10 -17,-22 -17,-26c0,-7 -29,-47 -63,-86c-7,-8 -29,-40 -49,-70c-37,-58 -103,-133 -199,-229c-130,-129 -228,-221 -237,-221c-5,0 -31,-17 -58,-39c-67,-52 -242,-171 -254,-171c-4,0 -21,-10 -37,-23c-15,-12 -50,-32 -78,-45c-27,-13 -71,-35 -96,-48c-26,-13 -54,-24 -62,-24c-8,0 -20,-6 -26,-14c-7,-8 -27,-18 -44,-22c-18,-3 -49,-15 -69,-25c-21,-11 -45,-19 -54,-19c-9,0 -30,-7 -47,-15c-42,-19 -165,-52 -247,-66c-36,-6 -99,-20 -140,-32c-70,-20 -99,-21 -440,-21c-339,0 -370,2 -440,21c-41,12 -99,24 -129,28c-30,3 -66,12 -82,20c-15,8 -46,18 -70,21c-24,4 -62,15 -84,25c-22,10 -49,19 -60,19c-11,0 -37,9 -58,20c-20,11 -42,20 -48,20c-12,0 -88,34 -217,99c-144,71 -168,85 -186,103c-10,10 -23,18 -31,18c-7,0 -35,17 -62,38c-26,20 -68,51 -93,67c-25,17 -49,35 -55,42c-5,6 -52,46 -104,88c-52,41 -115,99 -139,128c-25,29 -77,87 -116,129c-67,73 -122,141 -156,192c-8,13 -32,48 -53,78c-20,30 -37,60 -37,65c0,6 -6,16 -14,22c-17,14 -116,186 -116,201c0,6 -8,28 -19,48c-42,84 -61,128 -61,142c0,8 -11,38 -25,65c-13,28 -25,55 -25,61c0,7 -9,31 -20,55c-11,24 -20,60 -20,79c0,19 -7,49 -16,65c-9,17 -22,68 -29,115c-7,47 -19,105 -26,130c-10,34 -14,137 -14,405c0,310 2,368 17,415c9,30 20,84 24,120c3,36 15,85 25,109c11,24 19,58 19,75c0,17 8,47 19,66c10,19 21,51 25,71c3,19 15,53 26,74c11,22 20,45 20,53c0,12 8,30 59,129c11,23 21,48 21,56c0,8 8,25 19,38c10,13 34,52 52,86c80,147 184,299 251,366c10,10 18,22 18,27c0,16 236,260 251,260c4,0 49,36 100,81c52,44 107,87 122,95c15,8 51,33 80,54c29,22 68,47 87,56c19,9 40,22 45,28c6,7 45,29 87,49c42,21 80,41 83,46c3,5 20,13 38,17c17,3 43,15 56,25c13,11 33,19 45,19c11,0 35,9 51,20c17,11 39,20 50,20c12,0 38,9 60,20c21,11 59,24 84,29c25,5 64,16 86,25c22,8 55,15 73,16c18,0 49,7 70,16c20,9 82,20 137,25c55,5 138,15 185,23c95,17 402,15 477,-4z"/>
   <path id="svg_4" d="m2057,4702c-10,-2 -20,-19 -27,-45c-5,-23 -16,-62 -24,-87c-8,-25 -17,-63 -21,-85c-4,-22 -15,-66 -26,-97c-10,-32 -19,-70 -19,-85c0,-15 -7,-41 -15,-57c-9,-16 -20,-57 -24,-90c-5,-34 -16,-77 -24,-96c-8,-19 -18,-57 -22,-85c-4,-27 -13,-61 -20,-76c-8,-14 -18,-54 -23,-90c-6,-35 -17,-82 -26,-104c-8,-22 -15,-52 -16,-67c0,-15 -9,-50 -20,-78c-11,-28 -20,-63 -20,-78c-1,-15 -8,-45 -16,-67c-8,-22 -21,-69 -29,-105c-23,-106 -45,-191 -66,-255c-10,-33 -19,-70 -19,-83c0,-12 -9,-48 -20,-79c-11,-32 -20,-67 -20,-80c0,-12 -7,-44 -16,-70c-18,-52 -46,-164 -70,-283c-9,-41 -20,-80 -25,-87c-6,-6 -14,-39 -20,-74c-6,-35 -15,-69 -20,-75c-5,-7 -16,-47 -23,-91c-8,-43 -21,-96 -30,-118c-8,-22 -15,-53 -16,-70c0,-16 -7,-41 -15,-55c-8,-14 -14,-42 -15,-63l0,-37l307,2l307,3l19,32c10,17 23,62 29,100c5,37 16,79 23,93c7,14 16,54 20,90c4,36 13,75 20,86c8,12 17,46 20,75c6,52 51,196 64,203c4,3 180,6 391,8c422,3 445,1 455,-51c3,-14 14,-55 25,-91c11,-36 23,-83 26,-105c4,-22 13,-49 20,-61c8,-11 17,-43 20,-70c4,-27 13,-61 20,-75c7,-15 17,-53 23,-86c5,-32 19,-76 31,-96l22,-37l346,0c1125,-2 1608,2 1616,10c10,10 -10,147 -24,165c-5,6 -18,46 -30,90c-12,44 -29,108 -38,142c-9,34 -23,68 -30,75c-10,10 -119,14 -500,18l-486,5l-12,25c-27,54 -44,99 -44,114c0,8 -8,39 -19,68c-10,29 -31,94 -45,143c-15,50 -32,104 -38,120c-5,17 -13,41 -18,55c-4,14 -15,48 -25,75c-9,28 -22,73 -29,102c-12,47 -11,54 3,67c20,19 164,32 416,41c99,3 226,8 283,11c97,6 102,7 108,30c3,12 -3,54 -14,91c-12,37 -24,88 -28,113c-3,25 -11,53 -16,63c-5,10 -14,46 -19,80c-15,94 -9,91 -194,83c-88,-4 -200,-11 -250,-17c-49,-5 -169,-14 -265,-19c-201,-10 -212,-8 -231,62c-6,24 -20,72 -31,108c-10,36 -28,94 -38,130c-11,36 -26,88 -35,115c-9,28 -23,79 -32,115c-8,36 -22,77 -29,92c-17,34 -18,84 -1,95c6,4 215,10 464,13c248,3 455,8 458,12c14,14 6,88 -14,134c-12,26 -21,54 -21,63c0,9 -7,29 -15,45c-8,15 -21,53 -29,84c-8,30 -20,60 -26,66c-8,8 -311,11 -1078,11c-587,0 -1075,-1 -1085,-3zm478,-767c2,-11 7,-38 10,-60c4,-22 12,-49 19,-60c7,-11 16,-42 20,-70c4,-27 14,-59 21,-71c8,-12 19,-50 25,-85c7,-35 16,-69 21,-75c4,-6 13,-35 19,-65c6,-30 16,-65 22,-79c6,-14 17,-50 24,-80c7,-30 19,-73 28,-95c8,-22 15,-50 16,-62c0,-12 9,-46 20,-74c14,-35 20,-69 18,-103l-3,-51l-70,-6c-38,-4 -171,-8 -295,-10l-225,-4l-9,38c-7,28 -6,47 3,70c8,18 18,55 23,82c5,28 16,70 24,95c9,25 20,69 25,99c5,29 14,62 20,72c5,10 16,51 23,91c8,40 21,91 30,113c8,22 15,51 16,65c0,14 9,51 20,83c11,31 20,67 20,80c0,13 11,56 25,95c14,39 25,78 25,86c0,8 5,27 10,41l10,27l30,-33c17,-19 32,-43 35,-54z"/>
  </g>
  <line stroke-width="64" id="svg_5" y2="451.99992" x2="338.24998" y1="180.99967" x1="256.25006" stroke="#ff0000" fill="none"/>
  <line id="svg_6" y2="453" x2="164" y1="177" x1="232" stroke-width="63" stroke="#ff0000" fill="none"/>
  <line id="svg_8" y2="453" x2="192" y1="452" x1="140" stroke-width="17" stroke="#ff0000" fill="none"/>
  <line id="svg_11" y2="459.93527" x2="131.46254" y1="444.93652" x1="135.46221" stroke-width="4" stroke="#ff0000" fill="none"/>
  <line id="svg_14" y2="460.43523" x2="139.46188" y1="446.43639" x1="139.46188" stroke-width="10" stroke="#ff0000" fill="none"/>
  <line id="svg_15" y2="454.68571" x2="140.96175" y1="455.18567" x1="140.4618" stroke-width="17" stroke="#ff0000" fill="none"/>
  <line id="svg_17" y2="458.18542" x2="129" y1="458.4354" x1="195" stroke-width="6" stroke="#ff0000" fill="none"/>
  <line id="svg_22" y2="457.43548" x2="368.94284" y1="441.93677" x1="364.44321" stroke-width="8" stroke="#ff0000" fill="none"/>
  <line id="svg_25" y2="450.68604" x2="368.25006" y1="450.93602" x1="307.25006" stroke-width="18" stroke="#ff0000" fill="none"/>
  <line id="svg_26" y2="459.50004" x2="365.44313" y1="452.93585" x1="365.49996" stroke-width="17" stroke="#ff0000" fill="none"/>
  <line id="svg_27" y2="178.70862" x2="287" y1="178.74977" x1="202" stroke-width="19" stroke="#ff0000" fill="none"/>
  <line id="svg_31" y2="370.75002" x2="288.50004" y1="370.94268" x1="210.50004" stroke-width="43" stroke="#ff0000" fill="none"/>
 </g>
</svg>